<svg viewBox="0 0 1217.74 292.98" xmlns="http://www.w3.org/2000/svg" xmlns:xlink="http://www.w3.org/1999/xlink"><clipPath id="a"><path d="m139.05 48.26-3.75-3.57c-19.39-18.47-44.51-27.16-69.3-26.27-24.19.87-48.06 10.86-66 29.84v189.51c0 3.68 1.54 7.19 4.24 9.69l3.54 3.28 43.02 39.81c5.48 5.07 14.66 1.73 15.17-5.72.02-.25.03-.5.03-.75v-89.42l130.32-96.1-57.26-50.29z"/></clipPath><linearGradient id="b" gradientTransform="matrix(.45771389 1.41795557 -.8888297 .72966756 207.11 -127.77)" gradientUnits="userSpaceOnUse" x1="178.21" x2="57.76" y1="262.23" y2="103.02"><stop offset=".33" stop-color="#8815ff" stop-opacity=".8"/><stop offset=".43" stop-color="#7f17ff" stop-opacity=".78"/><stop offset=".58" stop-color="#681fff" stop-opacity=".73"/><stop offset=".76" stop-color="#412cff" stop-opacity=".65"/><stop offset=".96" stop-color="#0c3dff" stop-opacity=".53"/><stop offset="1" stop-color="#0042ff" stop-opacity=".5"/></linearGradient><linearGradient id="c" gradientTransform="matrix(.45625104 1.38687959 -.8910819 .71534456 106.38 -59.75)" gradientUnits="userSpaceOnUse" x1="-70.01" x2="176.13" y1="174.49" y2="123.94"><stop offset=".35" stop-color="#8815ff" stop-opacity=".6"/><stop offset=".54" stop-color="#6716f4" stop-opacity=".58"/><stop offset=".92" stop-color="#131adb" stop-opacity=".51"/><stop offset="1" stop-color="#001cd5" stop-opacity=".5"/></linearGradient><clipPath id="d"><path d="m123.07 244.71 3.75 3.57c19.39 18.47 44.51 27.16 69.3 26.27 24.19-.87 48.06-10.85 66-29.84v-146.39s0-43.11 0-43.11c0-3.68-1.54-7.19-4.24-9.69l-3.54-3.28-43.01-39.81c-5.48-5.07-14.66-1.73-15.17 5.72-.02.25-.03.5-.03.75v40.54s0 48.88 0 48.88l-130.32 96.1z"/></clipPath><linearGradient id="e" gradientTransform="matrix(-.45771389 -1.41795557 .8888297 -.72966756 357.62 667.73)" gradientUnits="userSpaceOnUse" x1="382.9" x2="405.51" y1="141.35" y2="-172.44"><stop offset=".29" stop-color="#01f4ff"/><stop offset=".34" stop-color="#00e2ff" stop-opacity=".95"/><stop offset=".52" stop-color="#00a9ff" stop-opacity=".79"/><stop offset=".68" stop-color="#007dff" stop-opacity=".67"/><stop offset=".82" stop-color="#005cff" stop-opacity=".58"/><stop offset=".93" stop-color="#0049ff" stop-opacity=".52"/><stop offset="1" stop-color="#0042ff" stop-opacity=".5"/></linearGradient><linearGradient id="f" gradientTransform="matrix(-.45625104 -1.38687959 .8910819 -.71534456 458.35 599.71)" gradientUnits="userSpaceOnUse" x1="196.39" x2="421.95" y1="87.43" y2="-137.31"><stop offset=".29" stop-color="#00f0fe"/><stop offset=".59" stop-color="#00a1fe"/><stop offset="1" stop-color="#002efe"/></linearGradient><g clip-path="url(#a)"><g fill="#4e03fd"><path d="m139.45 48.26-3.75-3.57c-19.39-18.47-44.51-27.16-69.3-26.27-24.19.87-48.06 10.86-66 29.84v189.51c0 3.68 1.54 7.19 4.24 9.69l3.54 3.28 43.02 39.81c5.48 5.07 14.66 1.73 15.17-5.72.02-.25.03-.5.03-.75v-89.42l130.32-96.1-57.26-50.29z"/><path d="m-56.96 115.39h311.37v114.64h-311.37z" transform="matrix(.45756356 -.88917692 .88917692 .45756356 -100.02 181.46)"/><path d="m-157.69 64.62h311.37v112.49h-311.37z" transform="matrix(.45756356 -.88917692 .88917692 .45756356 -108.56 63.77)"/></g><path d="m-56.96 115.39h311.37v114.64h-311.37z" fill="url(#b)" transform="matrix(.45756356 -.88917692 .88917692 .45756356 -100.02 181.46)"/><path d="m-157.69 64.62h311.37v112.49h-311.37z" fill="url(#c)" transform="matrix(.45756356 -.88917692 .88917692 .45756356 -108.56 63.77)"/></g><g clip-path="url(#d)"><path d="m122.68 244.71 3.75 3.57c19.39 18.47 44.51 27.16 69.3 26.27 24.19-.87 48.06-10.85 66-29.84v-146.39s0-43.11 0-43.11c0-3.68-1.54-7.19-4.24-9.69l-3.54-3.28-43.02-39.81c-5.48-5.07-14.66-1.73-15.17 5.72-.02.25-.03.5-.03.75v40.54s0 48.88 0 48.88l-130.32 96.1 57.26 50.29z" fill="#0072ff"/><path d="m7.72 62.94h311.37v114.64h-311.37z" fill="#4e03fd" transform="matrix(.45756356 -.88917692 .88917692 .45756356 -18.31 210.52)"/><path d="m108.45 115.86h311.37v112.49h-311.37z" fill="#4e03fd" transform="matrix(.45756356 -.88917692 .88917692 .45756356 -9.77 328.21)"/><path d="m7.72 62.94h311.37v114.64h-311.37z" fill="url(#e)" transform="matrix(.45756356 -.88917692 .88917692 .45756356 -18.31 210.52)"/><path d="m108.45 115.86h311.37v112.49h-311.37z" fill="url(#f)" transform="matrix(.45756356 -.88917692 .88917692 .45756356 -9.77 328.21)"/></g><path d="m321.01 215.05v-115.28h35.42v13.42c5.94-10.56 17.38-16.06 32.12-16.06 26.4 0 40.48 16.94 40.48 43.56v74.36h-36.96v-68.64c0-10.56-5.5-17.16-16.72-17.16-9.46 0-17.38 4.4-17.38 17.6v68.2z"/><path d="m511.09 156.53 39.6 58.52h-37.62l-20.68-30.8-20.68 30.8h-37.62l39.6-58.52-38.06-56.76h37.18l19.58 29.04 19.58-29.04h37.18z"/><path d="m599.97 68.75v31.02h22.22v28.6h-22.22v49.06c0 5.28 2.64 7.7 8.36 7.7h12.1v29.92h-24.42c-22 0-33-12.98-33-34.1v-52.58h-14.96v-28.6h14.96v-31.02z"/><path d="m632.97 99.77h35.2v12.1c3.52-6.38 15.84-14.74 31.68-14.74 32.56 0 48.84 24.64 48.84 50.82v18.92c0 26.18-16.28 50.82-48.84 50.82-13.86 0-25.08-6.38-29.92-12.1v47.74h-36.96zm36.96 65.78c0 14.52 9.68 21.78 20.68 21.78 14.52 0 21.12-8.8 21.12-22.44v-14.96c0-13.2-6.6-22.44-21.12-22.44-11 0-20.68 7.26-20.68 21.78z"/><path d="m760.57 215.05v-160.6h36.96v57.64c5.28-8.8 17.16-14.96 30.58-14.96 26.4 0 40.48 16.94 40.48 43.56v74.36h-36.96v-68.64c0-10.56-5.5-17.16-16.72-17.16-9.46 0-17.38 4.4-17.38 17.6v68.2z"/><path d="m956.59 215.05v-9.68c-6.6 7.7-19.14 12.32-34.1 12.32-26.4 0-42.24-15.18-42.24-36.3 0-23.76 17.82-35.86 44.66-35.86 13.86 0 24.42 3.96 30.14 8.58v-13.42c0-8.58-5.72-14.96-16.06-14.96-7.7 0-13.64 2.64-16.72 8.36h-33.66c4.84-23.1 24.42-36.96 51.48-36.96 32.78 0 51.92 17.82 51.92 46.2v71.72zm-1.54-34.32c0-7.7-8.36-13.42-19.8-13.42-12.54 0-20.46 4.4-20.46 13.42s8.36 13.42 20.02 13.42 20.24-5.72 20.24-13.42z"/><path d="m1053.62 217.69c-30.58 0-50.82-13.64-50.82-36.96v-2.42h32.56v1.54c0 8.14 7.48 12.32 18.48 12.32 9.9 0 17.38-3.52 17.38-10.12 0-4.18-1.98-6.6-7.7-7.92l-31.9-7.26c-17.82-3.96-27.06-14.74-27.06-31.02 0-24.86 19.8-38.72 47.74-38.72s46.86 14.08 46.86 37.18v1.98h-31.9v-1.98c0-7.04-4.18-11.66-14.52-11.66-9.46 0-13.86 3.08-13.86 9.46 0 4.4 2.2 6.6 7.26 7.7l33.66 8.14c15.62 3.74 25.3 13.64 25.3 29.48 0 23.1-20.68 40.26-51.48 40.26z"/><path d="m1146.01 169.07v2.64c0 11.44 6.82 20.02 19.8 20.02 10.34 0 16.28-5.28 18.7-11h32.56c-3.96 21.34-25.08 36.96-51.26 36.96-33.22 0-55.44-19.14-55.44-52.14v-14.3c0-32.12 19.58-54.12 54.56-54.12s52.8 23.32 52.8 50.82v21.12zm0-21.56h37.84v-4.18c0-11.44-5.72-20.02-18.7-20.02s-19.14 8.58-19.14 21.78z"/></svg>